<svg xmlns="http://www.w3.org/2000/svg" width="1024" height="1024" viewBox="0 0 1024 1024">

<defs>
  <linearGradient id="dotGrad" x1="0%" y1="0%" x2="100%" y2="100%">
    <stop offset="0%" stop-color="#1398FF"/>
    <stop offset="55%" stop-color="#2F6DFF"/>
    <stop offset="100%" stop-color="#7B3CFF"/>
  </linearGradient>
  <linearGradient id="bgGrad" x1="0%" y1="0%" x2="100%" y2="100%">
    <stop offset="0%" stop-color="#178BFF"/>
    <stop offset="100%" stop-color="#8338FF"/>
  </linearGradient>
</defs>

<rect width="100%" height="100%" rx="180" fill="#111111"/>
<g><circle cx="644.70" cy="604.92" r="7.76" fill="url(#dotGrad)"/>
<circle cx="611.61" cy="639.76" r="8.75" fill="url(#dotGrad)"/>
<circle cx="569.74" cy="663.36" r="9.75" fill="url(#dotGrad)"/>
<circle cx="522.80" cy="673.64" r="10.74" fill="url(#dotGrad)"/>
<circle cx="474.91" cy="669.70" r="11.73" fill="url(#dotGrad)"/>
<circle cx="430.28" cy="651.88" r="12.71" fill="url(#dotGrad)"/>
<circle cx="392.84" cy="621.75" r="12.71" fill="url(#dotGrad)"/>
<circle cx="365.89" cy="581.97" r="12.71" fill="url(#dotGrad)"/>
<circle cx="351.79" cy="536.03" r="12.71" fill="url(#dotGrad)"/>
<circle cx="351.79" cy="487.97" r="12.71" fill="url(#dotGrad)"/>
<circle cx="365.89" cy="442.03" r="12.71" fill="url(#dotGrad)"/>
<circle cx="392.84" cy="402.25" r="12.71" fill="url(#dotGrad)"/>
<circle cx="430.28" cy="372.12" r="12.71" fill="url(#dotGrad)"/>
<circle cx="474.91" cy="354.30" r="11.73" fill="url(#dotGrad)"/>
<circle cx="522.80" cy="350.36" r="10.74" fill="url(#dotGrad)"/>
<circle cx="569.74" cy="360.64" r="9.75" fill="url(#dotGrad)"/>
<circle cx="611.61" cy="384.24" r="8.75" fill="url(#dotGrad)"/>
<circle cx="644.70" cy="419.08" r="7.76" fill="url(#dotGrad)"/>
<circle cx="669.77" cy="622.47" r="8.32" fill="url(#dotGrad)"/>
<circle cx="640.42" cy="655.54" r="9.15" fill="url(#dotGrad)"/>
<circle cx="604.30" cy="681.04" r="9.97" fill="url(#dotGrad)"/>
<circle cx="563.32" cy="697.64" r="10.79" fill="url(#dotGrad)"/>
<circle cx="519.64" cy="704.45" r="11.62" fill="url(#dotGrad)"/>
<circle cx="475.55" cy="701.12" r="12.44" fill="url(#dotGrad)"/>
<circle cx="433.38" cy="687.82" r="13.26" fill="url(#dotGrad)"/>
<circle cx="395.36" cy="665.26" r="13.63" fill="url(#dotGrad)"/>
<circle cx="363.48" cy="634.63" r="13.63" fill="url(#dotGrad)"/>
<circle cx="339.43" cy="597.53" r="13.63" fill="url(#dotGrad)"/>
<circle cx="324.47" cy="555.92" r="13.63" fill="url(#dotGrad)"/>
<circle cx="319.40" cy="512.00" r="13.63" fill="url(#dotGrad)"/>
<circle cx="324.47" cy="468.08" r="13.63" fill="url(#dotGrad)"/>
<circle cx="339.43" cy="426.47" r="13.63" fill="url(#dotGrad)"/>
<circle cx="363.48" cy="389.37" r="13.63" fill="url(#dotGrad)"/>
<circle cx="395.36" cy="358.74" r="13.63" fill="url(#dotGrad)"/>
<circle cx="433.38" cy="336.18" r="13.26" fill="url(#dotGrad)"/>
<circle cx="475.55" cy="322.88" r="12.44" fill="url(#dotGrad)"/>
<circle cx="519.64" cy="319.55" r="11.62" fill="url(#dotGrad)"/>
<circle cx="563.32" cy="326.36" r="10.79" fill="url(#dotGrad)"/>
<circle cx="604.30" cy="342.96" r="9.97" fill="url(#dotGrad)"/>
<circle cx="640.42" cy="368.46" r="9.15" fill="url(#dotGrad)"/>
<circle cx="669.77" cy="401.53" r="8.32" fill="url(#dotGrad)"/>
<circle cx="694.83" cy="640.02" r="8.88" fill="url(#dotGrad)"/>
<circle cx="667.77" cy="671.85" r="9.60" fill="url(#dotGrad)"/>
<circle cx="635.25" cy="698.08" r="10.32" fill="url(#dotGrad)"/>
<circle cx="598.41" cy="717.79" r="11.03" fill="url(#dotGrad)"/>
<circle cx="558.55" cy="730.29" r="11.75" fill="url(#dotGrad)"/>
<circle cx="517.05" cy="735.14" r="12.47" fill="url(#dotGrad)"/>
<circle cx="475.37" cy="732.17" r="13.18" fill="url(#dotGrad)"/>
<circle cx="434.98" cy="721.49" r="13.90" fill="url(#dotGrad)"/>
<circle cx="397.29" cy="703.47" r="14.55" fill="url(#dotGrad)"/>
<circle cx="363.62" cy="678.74" r="14.55" fill="url(#dotGrad)"/>
<circle cx="335.14" cy="648.16" r="14.55" fill="url(#dotGrad)"/>
<circle cx="312.87" cy="612.82" r="14.55" fill="url(#dotGrad)"/>
<circle cx="297.57" cy="573.94" r="14.55" fill="url(#dotGrad)"/>
<circle cx="289.78" cy="532.89" r="14.55" fill="url(#dotGrad)"/>
<circle cx="289.78" cy="491.11" r="14.55" fill="url(#dotGrad)"/>
<circle cx="297.57" cy="450.06" r="14.55" fill="url(#dotGrad)"/>
<circle cx="312.87" cy="411.18" r="14.55" fill="url(#dotGrad)"/>
<circle cx="335.14" cy="375.84" r="14.55" fill="url(#dotGrad)"/>
<circle cx="363.62" cy="345.26" r="14.55" fill="url(#dotGrad)"/>
<circle cx="397.29" cy="320.53" r="14.55" fill="url(#dotGrad)"/>
<circle cx="434.98" cy="302.51" r="13.90" fill="url(#dotGrad)"/>
<circle cx="475.37" cy="291.83" r="13.18" fill="url(#dotGrad)"/>
<circle cx="517.05" cy="288.86" r="12.47" fill="url(#dotGrad)"/>
<circle cx="558.55" cy="293.71" r="11.75" fill="url(#dotGrad)"/>
<circle cx="598.41" cy="306.21" r="11.03" fill="url(#dotGrad)"/>
<circle cx="635.25" cy="325.92" r="10.32" fill="url(#dotGrad)"/>
<circle cx="667.77" cy="352.15" r="9.60" fill="url(#dotGrad)"/>
<circle cx="694.83" cy="383.98" r="8.88" fill="url(#dotGrad)"/>
<circle cx="719.90" cy="657.57" r="9.45" fill="url(#dotGrad)"/>
<circle cx="694.38" cy="688.50" r="10.09" fill="url(#dotGrad)"/>
<circle cx="664.30" cy="715.03" r="10.73" fill="url(#dotGrad)"/>
<circle cx="630.42" cy="736.48" r="11.38" fill="url(#dotGrad)"/>
<circle cx="593.58" cy="752.33" r="12.02" fill="url(#dotGrad)"/>
<circle cx="554.71" cy="762.18" r="12.66" fill="url(#dotGrad)"/>
<circle cx="514.77" cy="765.78" r="13.31" fill="url(#dotGrad)"/>
<circle cx="474.76" cy="763.05" r="13.95" fill="url(#dotGrad)"/>
<circle cx="435.68" cy="754.05" r="14.59" fill="url(#dotGrad)"/>
<circle cx="398.51" cy="739.01" r="15.23" fill="url(#dotGrad)"/>
<circle cx="364.17" cy="718.30" r="15.48" fill="url(#dotGrad)"/>
<circle cx="333.52" cy="692.44" r="15.48" fill="url(#dotGrad)"/>
<circle cx="307.32" cy="662.07" r="15.48" fill="url(#dotGrad)"/>
<circle cx="286.24" cy="627.96" r="15.48" fill="url(#dotGrad)"/>
<circle cx="270.79" cy="590.95" r="15.48" fill="url(#dotGrad)"/>
<circle cx="261.37" cy="551.98" r="15.48" fill="url(#dotGrad)"/>
<circle cx="258.20" cy="512.00" r="15.48" fill="url(#dotGrad)"/>
<circle cx="261.37" cy="472.02" r="15.48" fill="url(#dotGrad)"/>
<circle cx="270.79" cy="433.05" r="15.48" fill="url(#dotGrad)"/>
<circle cx="286.24" cy="396.04" r="15.48" fill="url(#dotGrad)"/>
<circle cx="307.32" cy="361.93" r="15.48" fill="url(#dotGrad)"/>
<circle cx="333.52" cy="331.56" r="15.48" fill="url(#dotGrad)"/>
<circle cx="364.17" cy="305.70" r="15.48" fill="url(#dotGrad)"/>
<circle cx="398.51" cy="284.99" r="15.23" fill="url(#dotGrad)"/>
<circle cx="435.68" cy="269.95" r="14.59" fill="url(#dotGrad)"/>
<circle cx="474.76" cy="260.95" r="13.95" fill="url(#dotGrad)"/>
<circle cx="514.77" cy="258.22" r="13.31" fill="url(#dotGrad)"/>
<circle cx="554.71" cy="261.82" r="12.66" fill="url(#dotGrad)"/>
<circle cx="593.58" cy="271.67" r="12.02" fill="url(#dotGrad)"/>
<circle cx="630.42" cy="287.52" r="11.38" fill="url(#dotGrad)"/>
<circle cx="664.30" cy="308.97" r="10.73" fill="url(#dotGrad)"/>
<circle cx="694.38" cy="335.50" r="10.09" fill="url(#dotGrad)"/>
<circle cx="719.90" cy="366.43" r="9.45" fill="url(#dotGrad)"/>
<circle cx="744.97" cy="675.13" r="10.01" fill="url(#dotGrad)"/>
<circle cx="720.55" cy="705.37" r="10.60" fill="url(#dotGrad)"/>
<circle cx="692.23" cy="732.00" r="11.19" fill="url(#dotGrad)"/>
<circle cx="660.54" cy="754.53" r="11.78" fill="url(#dotGrad)"/>
<circle cx="626.08" cy="772.52" r="12.37" fill="url(#dotGrad)"/>
<circle cx="589.49" cy="785.64" r="12.96" fill="url(#dotGrad)"/>
<circle cx="551.45" cy="793.65" r="13.55" fill="url(#dotGrad)"/>
<circle cx="512.67" cy="796.40" r="14.13" fill="url(#dotGrad)"/>
<circle cx="473.88" cy="793.83" r="14.72" fill="url(#dotGrad)"/>
<circle cx="435.80" cy="786.00" r="15.31" fill="url(#dotGrad)"/>
<circle cx="399.15" cy="773.05" r="15.90" fill="url(#dotGrad)"/>
<circle cx="364.60" cy="755.22" r="16.40" fill="url(#dotGrad)"/>
<circle cx="332.81" cy="732.85" r="16.40" fill="url(#dotGrad)"/>
<circle cx="304.37" cy="706.35" r="16.40" fill="url(#dotGrad)"/>
<circle cx="279.81" cy="676.22" r="16.40" fill="url(#dotGrad)"/>
<circle cx="259.58" cy="643.02" r="16.40" fill="url(#dotGrad)"/>
<circle cx="244.07" cy="607.38" r="16.40" fill="url(#dotGrad)"/>
<circle cx="233.57" cy="569.95" r="16.40" fill="url(#dotGrad)"/>
<circle cx="228.26" cy="531.44" r="16.40" fill="url(#dotGrad)"/>
<circle cx="228.26" cy="492.56" r="16.40" fill="url(#dotGrad)"/>
<circle cx="233.57" cy="454.05" r="16.40" fill="url(#dotGrad)"/>
<circle cx="244.07" cy="416.62" r="16.40" fill="url(#dotGrad)"/>
<circle cx="259.58" cy="380.98" r="16.40" fill="url(#dotGrad)"/>
<circle cx="279.81" cy="347.78" r="16.40" fill="url(#dotGrad)"/>
<circle cx="304.37" cy="317.65" r="16.40" fill="url(#dotGrad)"/>
<circle cx="332.81" cy="291.15" r="16.40" fill="url(#dotGrad)"/>
<circle cx="364.60" cy="268.78" r="16.40" fill="url(#dotGrad)"/>
<circle cx="399.15" cy="250.95" r="15.90" fill="url(#dotGrad)"/>
<circle cx="435.80" cy="238.00" r="15.31" fill="url(#dotGrad)"/>
<circle cx="473.88" cy="230.17" r="14.72" fill="url(#dotGrad)"/>
<circle cx="512.67" cy="227.60" r="14.13" fill="url(#dotGrad)"/>
<circle cx="551.45" cy="230.35" r="13.55" fill="url(#dotGrad)"/>
<circle cx="589.49" cy="238.36" r="12.96" fill="url(#dotGrad)"/>
<circle cx="626.08" cy="251.48" r="12.37" fill="url(#dotGrad)"/>
<circle cx="660.54" cy="269.47" r="11.78" fill="url(#dotGrad)"/>
<circle cx="692.23" cy="292.00" r="11.19" fill="url(#dotGrad)"/>
<circle cx="720.55" cy="318.63" r="10.60" fill="url(#dotGrad)"/>
<circle cx="744.97" cy="348.87" r="10.01" fill="url(#dotGrad)"/>
<circle cx="770.03" cy="692.68" r="10.57" fill="url(#dotGrad)"/>
<circle cx="746.44" cy="722.39" r="11.12" fill="url(#dotGrad)"/>
<circle cx="719.45" cy="749.05" r="11.67" fill="url(#dotGrad)"/>
<circle cx="689.45" cy="772.27" r="12.22" fill="url(#dotGrad)"/>
<circle cx="656.87" cy="791.71" r="12.77" fill="url(#dotGrad)"/>
<circle cx="622.19" cy="807.10" r="13.31" fill="url(#dotGrad)"/>
<circle cx="585.92" cy="818.20" r="13.86" fill="url(#dotGrad)"/>
<circle cx="548.57" cy="824.87" r="14.41" fill="url(#dotGrad)"/>
<circle cx="510.69" cy="827.00" r="14.96" fill="url(#dotGrad)"/>
<circle cx="472.83" cy="824.56" r="15.51" fill="url(#dotGrad)"/>
<circle cx="435.54" cy="817.58" r="16.06" fill="url(#dotGrad)"/>
<circle cx="399.36" cy="806.17" r="16.60" fill="url(#dotGrad)"/>
<circle cx="364.81" cy="790.50" r="17.15" fill="url(#dotGrad)"/>
<circle cx="332.40" cy="770.78" r="17.32" fill="url(#dotGrad)"/>
<circle cx="302.59" cy="747.31" r="17.32" fill="url(#dotGrad)"/>
<circle cx="275.82" cy="720.43" r="17.32" fill="url(#dotGrad)"/>
<circle cx="252.47" cy="690.53" r="17.32" fill="url(#dotGrad)"/>
<circle cx="232.89" cy="658.03" r="17.32" fill="url(#dotGrad)"/>
<circle cx="217.36" cy="623.42" r="17.32" fill="url(#dotGrad)"/>
<circle cx="206.11" cy="587.19" r="17.32" fill="url(#dotGrad)"/>
<circle cx="199.28" cy="549.87" r="17.32" fill="url(#dotGrad)"/>
<circle cx="197.00" cy="512.00" r="17.32" fill="url(#dotGrad)"/>
<circle cx="199.28" cy="474.13" r="17.32" fill="url(#dotGrad)"/>
<circle cx="206.11" cy="436.81" r="17.32" fill="url(#dotGrad)"/>
<circle cx="217.36" cy="400.58" r="17.32" fill="url(#dotGrad)"/>
<circle cx="232.89" cy="365.97" r="17.32" fill="url(#dotGrad)"/>
<circle cx="252.47" cy="333.47" r="17.32" fill="url(#dotGrad)"/>
<circle cx="275.82" cy="303.57" r="17.32" fill="url(#dotGrad)"/>
<circle cx="302.59" cy="276.69" r="17.32" fill="url(#dotGrad)"/>
<circle cx="332.40" cy="253.22" r="17.32" fill="url(#dotGrad)"/>
<circle cx="364.81" cy="233.50" r="17.15" fill="url(#dotGrad)"/>
<circle cx="399.36" cy="217.83" r="16.60" fill="url(#dotGrad)"/>
<circle cx="435.54" cy="206.42" r="16.06" fill="url(#dotGrad)"/>
<circle cx="472.83" cy="199.44" r="15.51" fill="url(#dotGrad)"/>
<circle cx="510.69" cy="197.00" r="14.96" fill="url(#dotGrad)"/>
<circle cx="548.57" cy="199.13" r="14.41" fill="url(#dotGrad)"/>
<circle cx="585.92" cy="205.80" r="13.86" fill="url(#dotGrad)"/>
<circle cx="622.19" cy="216.90" r="13.31" fill="url(#dotGrad)"/>
<circle cx="656.87" cy="232.29" r="12.77" fill="url(#dotGrad)"/>
<circle cx="689.45" cy="251.73" r="12.22" fill="url(#dotGrad)"/>
<circle cx="719.45" cy="274.95" r="11.67" fill="url(#dotGrad)"/>
<circle cx="746.44" cy="301.61" r="11.12" fill="url(#dotGrad)"/>
<circle cx="770.03" cy="331.32" r="10.57" fill="url(#dotGrad)"/>
<circle cx="795.10" cy="710.23" r="11.14" fill="url(#dotGrad)"/>
<circle cx="772.15" cy="739.51" r="11.65" fill="url(#dotGrad)"/>
<circle cx="746.19" cy="766.15" r="12.17" fill="url(#dotGrad)"/>
<circle cx="717.52" cy="789.85" r="12.68" fill="url(#dotGrad)"/>
<circle cx="686.46" cy="810.33" r="13.20" fill="url(#dotGrad)"/>
<circle cx="653.39" cy="827.35" r="13.72" fill="url(#dotGrad)"/>
<circle cx="618.67" cy="840.72" r="14.23" fill="url(#dotGrad)"/>
<circle cx="582.72" cy="850.29" r="14.75" fill="url(#dotGrad)"/>
<circle cx="545.95" cy="855.93" r="15.26" fill="url(#dotGrad)"/>
<circle cx="508.79" cy="857.59" r="15.78" fill="url(#dotGrad)"/>
<circle cx="471.67" cy="855.24" r="16.30" fill="url(#dotGrad)"/>
<circle cx="435.01" cy="848.91" r="16.81" fill="url(#dotGrad)"/>
<circle cx="399.24" cy="838.69" r="17.33" fill="url(#dotGrad)"/>
<circle cx="364.78" cy="824.68" r="17.84" fill="url(#dotGrad)"/>
<circle cx="332.03" cy="807.04" r="18.25" fill="url(#dotGrad)"/>
<circle cx="301.36" cy="785.99" r="18.25" fill="url(#dotGrad)"/>
<circle cx="273.13" cy="761.76" r="18.25" fill="url(#dotGrad)"/>
<circle cx="247.67" cy="734.64" r="18.25" fill="url(#dotGrad)"/>
<circle cx="225.27" cy="704.94" r="18.25" fill="url(#dotGrad)"/>
<circle cx="206.19" cy="673.00" r="18.25" fill="url(#dotGrad)"/>
<circle cx="190.66" cy="639.20" r="18.25" fill="url(#dotGrad)"/>
<circle cx="178.85" cy="603.92" r="18.25" fill="url(#dotGrad)"/>
<circle cx="170.90" cy="567.58" r="18.25" fill="url(#dotGrad)"/>
<circle cx="166.90" cy="530.60" r="18.25" fill="url(#dotGrad)"/>
<circle cx="166.90" cy="493.40" r="18.25" fill="url(#dotGrad)"/>
<circle cx="170.90" cy="456.42" r="18.25" fill="url(#dotGrad)"/>
<circle cx="178.85" cy="420.08" r="18.25" fill="url(#dotGrad)"/>
<circle cx="190.66" cy="384.80" r="18.25" fill="url(#dotGrad)"/>
<circle cx="206.19" cy="351.00" r="18.25" fill="url(#dotGrad)"/>
<circle cx="225.27" cy="319.06" r="18.25" fill="url(#dotGrad)"/>
<circle cx="247.67" cy="289.36" r="18.25" fill="url(#dotGrad)"/>
<circle cx="273.13" cy="262.24" r="18.25" fill="url(#dotGrad)"/>
<circle cx="301.36" cy="238.01" r="18.25" fill="url(#dotGrad)"/>
<circle cx="332.03" cy="216.96" r="18.25" fill="url(#dotGrad)"/>
<circle cx="364.78" cy="199.32" r="17.84" fill="url(#dotGrad)"/>
<circle cx="399.24" cy="185.31" r="17.33" fill="url(#dotGrad)"/>
<circle cx="435.01" cy="175.09" r="16.81" fill="url(#dotGrad)"/>
<circle cx="471.67" cy="168.76" r="16.30" fill="url(#dotGrad)"/>
<circle cx="508.79" cy="166.41" r="15.78" fill="url(#dotGrad)"/>
<circle cx="545.95" cy="168.07" r="15.26" fill="url(#dotGrad)"/>
<circle cx="582.72" cy="173.71" r="14.75" fill="url(#dotGrad)"/>
<circle cx="618.67" cy="183.28" r="14.23" fill="url(#dotGrad)"/>
<circle cx="653.39" cy="196.65" r="13.72" fill="url(#dotGrad)"/>
<circle cx="686.46" cy="213.67" r="13.20" fill="url(#dotGrad)"/>
<circle cx="717.52" cy="234.15" r="12.68" fill="url(#dotGrad)"/>
<circle cx="746.19" cy="257.85" r="12.17" fill="url(#dotGrad)"/>
<circle cx="772.15" cy="284.49" r="11.65" fill="url(#dotGrad)"/>
<circle cx="795.10" cy="313.77" r="11.14" fill="url(#dotGrad)"/></g>
</svg>