<svg xmlns="http://www.w3.org/2000/svg" width="1600" height="480" viewBox="0 0 1600 480">

<defs>
  <linearGradient id="dotGrad" x1="0%" y1="0%" x2="100%" y2="100%">
    <stop offset="0%" stop-color="#1398FF"/>
    <stop offset="55%" stop-color="#2F6DFF"/>
    <stop offset="100%" stop-color="#7B3CFF"/>
  </linearGradient>
  <linearGradient id="bgGrad" x1="0%" y1="0%" x2="100%" y2="100%">
    <stop offset="0%" stop-color="#178BFF"/>
    <stop offset="100%" stop-color="#8338FF"/>
  </linearGradient>
</defs>

<rect width="100%" height="100%" fill="#071633"/>
<g><circle cx="284.76" cy="274.84" r="3.22" fill="url(#dotGrad)"/>
<circle cx="272.35" cy="287.91" r="3.63" fill="url(#dotGrad)"/>
<circle cx="256.65" cy="296.76" r="4.04" fill="url(#dotGrad)"/>
<circle cx="239.05" cy="300.61" r="4.45" fill="url(#dotGrad)"/>
<circle cx="221.09" cy="299.14" r="4.87" fill="url(#dotGrad)"/>
<circle cx="204.36" cy="292.45" r="5.27" fill="url(#dotGrad)"/>
<circle cx="190.32" cy="281.16" r="5.27" fill="url(#dotGrad)"/>
<circle cx="180.21" cy="266.24" r="5.27" fill="url(#dotGrad)"/>
<circle cx="174.92" cy="249.01" r="5.27" fill="url(#dotGrad)"/>
<circle cx="174.92" cy="230.99" r="5.27" fill="url(#dotGrad)"/>
<circle cx="180.21" cy="213.76" r="5.27" fill="url(#dotGrad)"/>
<circle cx="190.32" cy="198.84" r="5.27" fill="url(#dotGrad)"/>
<circle cx="204.36" cy="187.55" r="5.27" fill="url(#dotGrad)"/>
<circle cx="221.09" cy="180.86" r="4.87" fill="url(#dotGrad)"/>
<circle cx="239.05" cy="179.39" r="4.45" fill="url(#dotGrad)"/>
<circle cx="256.65" cy="183.24" r="4.04" fill="url(#dotGrad)"/>
<circle cx="272.35" cy="192.09" r="3.63" fill="url(#dotGrad)"/>
<circle cx="284.76" cy="205.16" r="3.22" fill="url(#dotGrad)"/>
<circle cx="294.16" cy="281.43" r="3.45" fill="url(#dotGrad)"/>
<circle cx="283.16" cy="293.83" r="3.79" fill="url(#dotGrad)"/>
<circle cx="269.61" cy="303.39" r="4.13" fill="url(#dotGrad)"/>
<circle cx="254.25" cy="309.61" r="4.47" fill="url(#dotGrad)"/>
<circle cx="237.86" cy="312.17" r="4.82" fill="url(#dotGrad)"/>
<circle cx="221.33" cy="310.92" r="5.16" fill="url(#dotGrad)"/>
<circle cx="205.52" cy="305.93" r="5.50" fill="url(#dotGrad)"/>
<circle cx="191.26" cy="297.47" r="5.65" fill="url(#dotGrad)"/>
<circle cx="179.31" cy="285.98" r="5.65" fill="url(#dotGrad)"/>
<circle cx="170.29" cy="272.07" r="5.65" fill="url(#dotGrad)"/>
<circle cx="164.68" cy="256.47" r="5.65" fill="url(#dotGrad)"/>
<circle cx="162.77" cy="240.00" r="5.65" fill="url(#dotGrad)"/>
<circle cx="164.68" cy="223.53" r="5.65" fill="url(#dotGrad)"/>
<circle cx="170.29" cy="207.93" r="5.65" fill="url(#dotGrad)"/>
<circle cx="179.31" cy="194.02" r="5.65" fill="url(#dotGrad)"/>
<circle cx="191.26" cy="182.53" r="5.65" fill="url(#dotGrad)"/>
<circle cx="205.52" cy="174.07" r="5.50" fill="url(#dotGrad)"/>
<circle cx="221.33" cy="169.08" r="5.16" fill="url(#dotGrad)"/>
<circle cx="237.86" cy="167.83" r="4.82" fill="url(#dotGrad)"/>
<circle cx="254.25" cy="170.39" r="4.47" fill="url(#dotGrad)"/>
<circle cx="269.61" cy="176.61" r="4.13" fill="url(#dotGrad)"/>
<circle cx="283.16" cy="186.17" r="3.79" fill="url(#dotGrad)"/>
<circle cx="294.16" cy="198.57" r="3.45" fill="url(#dotGrad)"/>
<circle cx="303.56" cy="288.01" r="3.68" fill="url(#dotGrad)"/>
<circle cx="293.41" cy="299.95" r="3.98" fill="url(#dotGrad)"/>
<circle cx="281.22" cy="309.78" r="4.28" fill="url(#dotGrad)"/>
<circle cx="267.41" cy="317.17" r="4.58" fill="url(#dotGrad)"/>
<circle cx="252.46" cy="321.86" r="4.87" fill="url(#dotGrad)"/>
<circle cx="236.89" cy="323.68" r="5.17" fill="url(#dotGrad)"/>
<circle cx="221.27" cy="322.57" r="5.47" fill="url(#dotGrad)"/>
<circle cx="206.12" cy="318.56" r="5.76" fill="url(#dotGrad)"/>
<circle cx="191.98" cy="311.80" r="6.04" fill="url(#dotGrad)"/>
<circle cx="179.36" cy="302.53" r="6.04" fill="url(#dotGrad)"/>
<circle cx="168.68" cy="291.06" r="6.04" fill="url(#dotGrad)"/>
<circle cx="160.32" cy="277.81" r="6.04" fill="url(#dotGrad)"/>
<circle cx="154.59" cy="263.23" r="6.04" fill="url(#dotGrad)"/>
<circle cx="151.67" cy="247.83" r="6.04" fill="url(#dotGrad)"/>
<circle cx="151.67" cy="232.17" r="6.04" fill="url(#dotGrad)"/>
<circle cx="154.59" cy="216.77" r="6.04" fill="url(#dotGrad)"/>
<circle cx="160.32" cy="202.19" r="6.04" fill="url(#dotGrad)"/>
<circle cx="168.68" cy="188.94" r="6.04" fill="url(#dotGrad)"/>
<circle cx="179.36" cy="177.47" r="6.04" fill="url(#dotGrad)"/>
<circle cx="191.98" cy="168.20" r="6.04" fill="url(#dotGrad)"/>
<circle cx="206.12" cy="161.44" r="5.76" fill="url(#dotGrad)"/>
<circle cx="221.27" cy="157.43" r="5.47" fill="url(#dotGrad)"/>
<circle cx="236.89" cy="156.32" r="5.17" fill="url(#dotGrad)"/>
<circle cx="252.46" cy="158.14" r="4.87" fill="url(#dotGrad)"/>
<circle cx="267.41" cy="162.83" r="4.58" fill="url(#dotGrad)"/>
<circle cx="281.22" cy="170.22" r="4.28" fill="url(#dotGrad)"/>
<circle cx="293.41" cy="180.05" r="3.98" fill="url(#dotGrad)"/>
<circle cx="303.56" cy="191.99" r="3.68" fill="url(#dotGrad)"/>
<circle cx="312.96" cy="294.59" r="3.92" fill="url(#dotGrad)"/>
<circle cx="303.39" cy="306.19" r="4.18" fill="url(#dotGrad)"/>
<circle cx="292.11" cy="316.13" r="4.45" fill="url(#dotGrad)"/>
<circle cx="279.41" cy="324.18" r="4.72" fill="url(#dotGrad)"/>
<circle cx="265.59" cy="330.12" r="4.98" fill="url(#dotGrad)"/>
<circle cx="251.02" cy="333.82" r="5.25" fill="url(#dotGrad)"/>
<circle cx="236.04" cy="335.17" r="5.52" fill="url(#dotGrad)"/>
<circle cx="221.03" cy="334.14" r="5.78" fill="url(#dotGrad)"/>
<circle cx="206.38" cy="330.77" r="6.05" fill="url(#dotGrad)"/>
<circle cx="192.44" cy="325.13" r="6.32" fill="url(#dotGrad)"/>
<circle cx="179.56" cy="317.36" r="6.42" fill="url(#dotGrad)"/>
<circle cx="168.07" cy="307.66" r="6.42" fill="url(#dotGrad)"/>
<circle cx="158.25" cy="296.28" r="6.42" fill="url(#dotGrad)"/>
<circle cx="150.34" cy="283.49" r="6.42" fill="url(#dotGrad)"/>
<circle cx="144.55" cy="269.61" r="6.42" fill="url(#dotGrad)"/>
<circle cx="141.01" cy="254.99" r="6.42" fill="url(#dotGrad)"/>
<circle cx="139.82" cy="240.00" r="6.42" fill="url(#dotGrad)"/>
<circle cx="141.01" cy="225.01" r="6.42" fill="url(#dotGrad)"/>
<circle cx="144.55" cy="210.39" r="6.42" fill="url(#dotGrad)"/>
<circle cx="150.34" cy="196.51" r="6.42" fill="url(#dotGrad)"/>
<circle cx="158.25" cy="183.72" r="6.42" fill="url(#dotGrad)"/>
<circle cx="168.07" cy="172.34" r="6.42" fill="url(#dotGrad)"/>
<circle cx="179.56" cy="162.64" r="6.42" fill="url(#dotGrad)"/>
<circle cx="192.44" cy="154.87" r="6.32" fill="url(#dotGrad)"/>
<circle cx="206.38" cy="149.23" r="6.05" fill="url(#dotGrad)"/>
<circle cx="221.03" cy="145.86" r="5.78" fill="url(#dotGrad)"/>
<circle cx="236.04" cy="144.83" r="5.52" fill="url(#dotGrad)"/>
<circle cx="251.02" cy="146.18" r="5.25" fill="url(#dotGrad)"/>
<circle cx="265.59" cy="149.88" r="4.98" fill="url(#dotGrad)"/>
<circle cx="279.41" cy="155.82" r="4.72" fill="url(#dotGrad)"/>
<circle cx="292.11" cy="163.87" r="4.45" fill="url(#dotGrad)"/>
<circle cx="303.39" cy="173.81" r="4.18" fill="url(#dotGrad)"/>
<circle cx="312.96" cy="185.41" r="3.92" fill="url(#dotGrad)"/>
<circle cx="322.36" cy="301.17" r="4.15" fill="url(#dotGrad)"/>
<circle cx="313.20" cy="312.51" r="4.40" fill="url(#dotGrad)"/>
<circle cx="302.59" cy="322.50" r="4.64" fill="url(#dotGrad)"/>
<circle cx="290.70" cy="330.95" r="4.88" fill="url(#dotGrad)"/>
<circle cx="277.78" cy="337.69" r="5.13" fill="url(#dotGrad)"/>
<circle cx="264.06" cy="342.62" r="5.37" fill="url(#dotGrad)"/>
<circle cx="249.79" cy="345.62" r="5.62" fill="url(#dotGrad)"/>
<circle cx="235.25" cy="346.65" r="5.86" fill="url(#dotGrad)"/>
<circle cx="220.71" cy="345.69" r="6.11" fill="url(#dotGrad)"/>
<circle cx="206.43" cy="342.75" r="6.35" fill="url(#dotGrad)"/>
<circle cx="192.68" cy="337.89" r="6.59" fill="url(#dotGrad)"/>
<circle cx="179.73" cy="331.21" r="6.80" fill="url(#dotGrad)"/>
<circle cx="167.80" cy="322.82" r="6.80" fill="url(#dotGrad)"/>
<circle cx="157.14" cy="312.88" r="6.80" fill="url(#dotGrad)"/>
<circle cx="147.93" cy="301.58" r="6.80" fill="url(#dotGrad)"/>
<circle cx="140.34" cy="289.13" r="6.80" fill="url(#dotGrad)"/>
<circle cx="134.53" cy="275.77" r="6.80" fill="url(#dotGrad)"/>
<circle cx="130.59" cy="261.73" r="6.80" fill="url(#dotGrad)"/>
<circle cx="128.60" cy="247.29" r="6.80" fill="url(#dotGrad)"/>
<circle cx="128.60" cy="232.71" r="6.80" fill="url(#dotGrad)"/>
<circle cx="130.59" cy="218.27" r="6.80" fill="url(#dotGrad)"/>
<circle cx="134.53" cy="204.23" r="6.80" fill="url(#dotGrad)"/>
<circle cx="140.34" cy="190.87" r="6.80" fill="url(#dotGrad)"/>
<circle cx="147.93" cy="178.42" r="6.80" fill="url(#dotGrad)"/>
<circle cx="157.14" cy="167.12" r="6.80" fill="url(#dotGrad)"/>
<circle cx="167.80" cy="157.18" r="6.80" fill="url(#dotGrad)"/>
<circle cx="179.73" cy="148.79" r="6.80" fill="url(#dotGrad)"/>
<circle cx="192.68" cy="142.11" r="6.59" fill="url(#dotGrad)"/>
<circle cx="206.43" cy="137.25" r="6.35" fill="url(#dotGrad)"/>
<circle cx="220.71" cy="134.31" r="6.11" fill="url(#dotGrad)"/>
<circle cx="235.25" cy="133.35" r="5.86" fill="url(#dotGrad)"/>
<circle cx="249.79" cy="134.38" r="5.62" fill="url(#dotGrad)"/>
<circle cx="264.06" cy="137.38" r="5.37" fill="url(#dotGrad)"/>
<circle cx="277.78" cy="142.31" r="5.13" fill="url(#dotGrad)"/>
<circle cx="290.70" cy="149.05" r="4.88" fill="url(#dotGrad)"/>
<circle cx="302.59" cy="157.50" r="4.64" fill="url(#dotGrad)"/>
<circle cx="313.20" cy="167.49" r="4.40" fill="url(#dotGrad)"/>
<circle cx="322.36" cy="178.83" r="4.15" fill="url(#dotGrad)"/>
<circle cx="331.76" cy="307.75" r="4.38" fill="url(#dotGrad)"/>
<circle cx="322.92" cy="318.90" r="4.61" fill="url(#dotGrad)"/>
<circle cx="312.79" cy="328.89" r="4.84" fill="url(#dotGrad)"/>
<circle cx="301.54" cy="337.60" r="5.07" fill="url(#dotGrad)"/>
<circle cx="289.33" cy="344.89" r="5.29" fill="url(#dotGrad)"/>
<circle cx="276.32" cy="350.66" r="5.52" fill="url(#dotGrad)"/>
<circle cx="262.72" cy="354.83" r="5.75" fill="url(#dotGrad)"/>
<circle cx="248.71" cy="357.33" r="5.98" fill="url(#dotGrad)"/>
<circle cx="234.51" cy="358.12" r="6.20" fill="url(#dotGrad)"/>
<circle cx="220.31" cy="357.21" r="6.43" fill="url(#dotGrad)"/>
<circle cx="206.33" cy="354.59" r="6.66" fill="url(#dotGrad)"/>
<circle cx="192.76" cy="350.31" r="6.88" fill="url(#dotGrad)"/>
<circle cx="179.80" cy="344.44" r="7.11" fill="url(#dotGrad)"/>
<circle cx="167.65" cy="337.04" r="7.18" fill="url(#dotGrad)"/>
<circle cx="156.47" cy="328.24" r="7.18" fill="url(#dotGrad)"/>
<circle cx="146.43" cy="318.16" r="7.18" fill="url(#dotGrad)"/>
<circle cx="137.68" cy="306.95" r="7.18" fill="url(#dotGrad)"/>
<circle cx="130.34" cy="294.76" r="7.18" fill="url(#dotGrad)"/>
<circle cx="124.51" cy="281.78" r="7.18" fill="url(#dotGrad)"/>
<circle cx="120.29" cy="268.20" r="7.18" fill="url(#dotGrad)"/>
<circle cx="117.73" cy="254.20" r="7.18" fill="url(#dotGrad)"/>
<circle cx="116.88" cy="240.00" r="7.18" fill="url(#dotGrad)"/>
<circle cx="117.73" cy="225.80" r="7.18" fill="url(#dotGrad)"/>
<circle cx="120.29" cy="211.80" r="7.18" fill="url(#dotGrad)"/>
<circle cx="124.51" cy="198.22" r="7.18" fill="url(#dotGrad)"/>
<circle cx="130.34" cy="185.24" r="7.18" fill="url(#dotGrad)"/>
<circle cx="137.68" cy="173.05" r="7.18" fill="url(#dotGrad)"/>
<circle cx="146.43" cy="161.84" r="7.18" fill="url(#dotGrad)"/>
<circle cx="156.47" cy="151.76" r="7.18" fill="url(#dotGrad)"/>
<circle cx="167.65" cy="142.96" r="7.18" fill="url(#dotGrad)"/>
<circle cx="179.80" cy="135.56" r="7.11" fill="url(#dotGrad)"/>
<circle cx="192.76" cy="129.69" r="6.88" fill="url(#dotGrad)"/>
<circle cx="206.33" cy="125.41" r="6.66" fill="url(#dotGrad)"/>
<circle cx="220.31" cy="122.79" r="6.43" fill="url(#dotGrad)"/>
<circle cx="234.51" cy="121.88" r="6.20" fill="url(#dotGrad)"/>
<circle cx="248.71" cy="122.67" r="5.98" fill="url(#dotGrad)"/>
<circle cx="262.72" cy="125.17" r="5.75" fill="url(#dotGrad)"/>
<circle cx="276.32" cy="129.34" r="5.52" fill="url(#dotGrad)"/>
<circle cx="289.33" cy="135.11" r="5.29" fill="url(#dotGrad)"/>
<circle cx="301.54" cy="142.40" r="5.07" fill="url(#dotGrad)"/>
<circle cx="312.79" cy="151.11" r="4.84" fill="url(#dotGrad)"/>
<circle cx="322.92" cy="161.10" r="4.61" fill="url(#dotGrad)"/>
<circle cx="331.76" cy="172.25" r="4.38" fill="url(#dotGrad)"/>
<circle cx="341.16" cy="314.34" r="4.62" fill="url(#dotGrad)"/>
<circle cx="332.56" cy="325.32" r="4.83" fill="url(#dotGrad)"/>
<circle cx="322.82" cy="335.31" r="5.05" fill="url(#dotGrad)"/>
<circle cx="312.07" cy="344.19" r="5.26" fill="url(#dotGrad)"/>
<circle cx="300.42" cy="351.87" r="5.47" fill="url(#dotGrad)"/>
<circle cx="288.02" cy="358.26" r="5.69" fill="url(#dotGrad)"/>
<circle cx="275.00" cy="363.27" r="5.90" fill="url(#dotGrad)"/>
<circle cx="261.52" cy="366.86" r="6.12" fill="url(#dotGrad)"/>
<circle cx="247.73" cy="368.97" r="6.33" fill="url(#dotGrad)"/>
<circle cx="233.80" cy="369.59" r="6.54" fill="url(#dotGrad)"/>
<circle cx="219.87" cy="368.71" r="6.76" fill="url(#dotGrad)"/>
<circle cx="206.13" cy="366.34" r="6.97" fill="url(#dotGrad)"/>
<circle cx="192.72" cy="362.51" r="7.19" fill="url(#dotGrad)"/>
<circle cx="179.79" cy="357.25" r="7.40" fill="url(#dotGrad)"/>
<circle cx="167.51" cy="350.64" r="7.57" fill="url(#dotGrad)"/>
<circle cx="156.01" cy="342.75" r="7.57" fill="url(#dotGrad)"/>
<circle cx="145.42" cy="333.66" r="7.57" fill="url(#dotGrad)"/>
<circle cx="135.88" cy="323.49" r="7.57" fill="url(#dotGrad)"/>
<circle cx="127.48" cy="312.35" r="7.57" fill="url(#dotGrad)"/>
<circle cx="120.32" cy="300.38" r="7.57" fill="url(#dotGrad)"/>
<circle cx="114.50" cy="287.70" r="7.57" fill="url(#dotGrad)"/>
<circle cx="110.07" cy="274.47" r="7.57" fill="url(#dotGrad)"/>
<circle cx="107.09" cy="260.84" r="7.57" fill="url(#dotGrad)"/>
<circle cx="105.59" cy="246.97" r="7.57" fill="url(#dotGrad)"/>
<circle cx="105.59" cy="233.03" r="7.57" fill="url(#dotGrad)"/>
<circle cx="107.09" cy="219.16" r="7.57" fill="url(#dotGrad)"/>
<circle cx="110.07" cy="205.53" r="7.57" fill="url(#dotGrad)"/>
<circle cx="114.50" cy="192.30" r="7.57" fill="url(#dotGrad)"/>
<circle cx="120.32" cy="179.62" r="7.57" fill="url(#dotGrad)"/>
<circle cx="127.48" cy="167.65" r="7.57" fill="url(#dotGrad)"/>
<circle cx="135.88" cy="156.51" r="7.57" fill="url(#dotGrad)"/>
<circle cx="145.42" cy="146.34" r="7.57" fill="url(#dotGrad)"/>
<circle cx="156.01" cy="137.25" r="7.57" fill="url(#dotGrad)"/>
<circle cx="167.51" cy="129.36" r="7.57" fill="url(#dotGrad)"/>
<circle cx="179.79" cy="122.75" r="7.40" fill="url(#dotGrad)"/>
<circle cx="192.72" cy="117.49" r="7.19" fill="url(#dotGrad)"/>
<circle cx="206.13" cy="113.66" r="6.97" fill="url(#dotGrad)"/>
<circle cx="219.87" cy="111.29" r="6.76" fill="url(#dotGrad)"/>
<circle cx="233.80" cy="110.41" r="6.54" fill="url(#dotGrad)"/>
<circle cx="247.73" cy="111.03" r="6.33" fill="url(#dotGrad)"/>
<circle cx="261.52" cy="113.14" r="6.12" fill="url(#dotGrad)"/>
<circle cx="275.00" cy="116.73" r="5.90" fill="url(#dotGrad)"/>
<circle cx="288.02" cy="121.74" r="5.69" fill="url(#dotGrad)"/>
<circle cx="300.42" cy="128.13" r="5.47" fill="url(#dotGrad)"/>
<circle cx="312.07" cy="135.81" r="5.26" fill="url(#dotGrad)"/>
<circle cx="322.82" cy="144.69" r="5.05" fill="url(#dotGrad)"/>
<circle cx="332.56" cy="154.68" r="4.83" fill="url(#dotGrad)"/>
<circle cx="341.16" cy="165.66" r="4.62" fill="url(#dotGrad)"/></g>
<text x="430" y="305" font-family="Inter, Manrope, Avenir Next, Arial, sans-serif" font-size="185" font-weight="500" letter-spacing="-6" fill="#FFFFFF">Cogneris</text>
</svg>